# xmcd
#
# Track frame offsets:
#	150
#	14178
#	30151
#	45563
#	63129
#	76100
#	91487
#	108945
#	121459
#	139046
#	154151
#	168504
#	183494
#	203007
#	219055
#	234571
#	251772
#	266517
#	279468
#	297134
#	309892
#
# Disc length: 4307 seconds
#
# Revision: 1
# Processed by: cddbd v1.5.2PL0 Copyright (c) Steve Scherf et al.
# Submitted via: audiograbber 1.83.01
#
DISCID=1810d115
DTITLE=Various Artist - Halland's Country Hits Volume 1
DYEAR=1900
DGENRE=
TTITLE0=Doug Stone - Addicted To A Dollar
TTITLE1=Doug Stone - I Never Knew Love
TTITLE2=Doug Stone - More Love
TTITLE3=George Strait - I'd Like To Have That One Back
TTITLE4=George Strait - Lovebug
TTITLE5=George Strait - The Man In Love With You
TTITLE6=Pam Tillis - Spilled Perfume
TTITLE7=Pam Tillis - When You Walk In The Room
TTITLE8=The Tractors - Baby Likes To Rock It
TTITLE9=Randy Travis - Before You Kill Us All
TTITLE10=Randy Travis - Whisper My Name
TTITLE11=Rick Trevino - She Can't Say I Didn't Cry
TTITLE12=Travis Tritt - Foolish Pride
TTITLE13=Travis Tritt - Take It Easy
TTITLE14=Tanya Tucker - Hangin' In
TTITLE15=Tanya Tucker - We Don't Have To Do This
TTITLE16=Clay Walker - Dreaming With My Eyes Open
TTITLE17=Clay Walker - Live Until I Die
TTITLE18=Clay Walker - Where Do I Fit In The Picture
TTITLE19=Trisha Yearwood - XXX's And OOO's
TTITLE20=Dwight Yoakam - Try Not To Look So Pretty
EXTD=
EXTT0=
EXTT1=
EXTT2=
EXTT3=
EXTT4=
EXTT5=
EXTT6=
EXTT7=
EXTT8=
EXTT9=
EXTT10=
EXTT11=
EXTT12=
EXTT13=
EXTT14=
EXTT15=
EXTT16=
EXTT17=
EXTT18=
EXTT19=
EXTT20=
PLAYORDER=
